<?xml version="1.0" encoding="UTF-8" ?>
<!DOCTYPE svg PUBLIC "-//W3C//DTD SVG 1.1//EN" "http://www.w3.org/Graphics/SVG/1.1/DTD/svg11.dtd">
<svg width="714pt" height="594pt" viewBox="0 0 714 594" version="1.1" xmlns="http://www.w3.org/2000/svg">
<path fill="#00adee" opacity="1.00" d=" M 584.24 19.30 C 596.26 14.78 608.48 26.82 606.16 38.75 C 605.55 53.66 582.07 58.65 574.71 45.93 C 568.74 36.92 572.93 21.78 584.24 19.30 Z" />
<path fill="#00adee" opacity="1.00" d=" M 408.81 58.50 C 412.05 36.80 448.84 39.09 449.09 61.06 C 452.01 78.39 428.96 89.97 416.29 78.93 C 408.97 74.89 409.02 65.69 408.81 58.50 Z" />
<path fill="#00adee" opacity="1.00" d=" M 617.69 43.41 C 637.91 37.22 646.48 70.87 625.91 75.64 C 604.66 82.83 596.65 46.40 617.69 43.41 Z" />
<path fill="#00adee" opacity="1.00" d=" M 515.87 52.43 C 524.12 48.98 532.76 58.80 529.18 66.64 C 527.26 75.06 515.40 76.32 510.05 70.79 C 506.20 64.74 507.08 53.22 515.87 52.43 Z" />
<path fill="#00adee" opacity="1.00" d=" M 321.00 78.95 C 311.76 69.09 319.34 51.59 332.85 52.95 C 341.89 53.37 346.63 62.53 345.29 70.74 C 343.23 82.48 329.66 84.19 321.00 78.95 Z" />
<path fill="#000000" opacity="1.00" d=" M 408.83 57.60 L 408.81 58.50 C 409.02 65.69 408.97 74.89 416.29 78.93 C 428.96 89.97 452.01 78.39 449.09 61.06 C 481.02 64.12 511.52 74.61 540.73 87.45 C 536.74 103.71 555.79 114.54 568.89 106.13 C 589.03 119.31 604.93 137.77 619.66 156.50 C 637.71 160.81 655.50 170.02 666.62 185.38 C 703.45 233.17 702.86 307.19 663.22 353.19 C 655.81 358.58 651.04 366.23 648.25 374.84 C 668.48 382.36 688.74 389.80 708.96 397.36 C 680.17 402.12 651.01 405.61 622.46 411.20 C 556.34 478.32 454.33 488.66 365.11 485.06 C 345.84 516.76 323.81 549.53 323.63 588.11 C 294.41 577.32 274.70 547.18 273.96 516.33 C 274.46 513.16 271.11 512.65 268.92 511.61 C 255.48 535.04 243.68 560.52 243.63 588.11 C 213.76 577.14 194.26 546.08 193.71 514.71 C 177.48 503.04 163.99 485.13 165.73 464.02 C 159.10 465.13 153.77 469.73 147.18 471.02 C 143.89 462.23 139.34 453.99 136.01 445.24 C 144.78 442.23 153.07 438.05 161.56 434.36 C 159.98 422.02 163.74 410.92 168.83 400.15 C 153.64 379.38 142.84 355.50 138.78 329.97 C 126.17 336.06 114.22 343.38 101.81 349.84 C 110.96 335.16 122.13 321.80 130.96 306.91 C 98.54 320.08 66.49 334.23 34.31 347.95 C 26.42 323.28 15.96 299.40 9.08 274.45 C 46.70 268.21 84.67 264.65 122.30 258.35 C 86.00 249.50 50.01 239.31 13.87 229.80 C 17.92 221.22 21.66 212.47 26.18 204.13 C 32.63 202.78 38.92 200.83 45.16 198.76 C 43.05 193.02 38.80 188.46 36.24 183.02 C 42.38 171.97 46.07 159.45 53.16 149.00 C 87.20 172.45 119.98 198.30 153.16 223.16 C 185.52 154.11 250.00 104.02 321.00 78.95 C 329.66 84.19 343.23 82.48 345.29 70.74 C 365.73 65.82 386.49 61.86 407.56 60.83 C 407.88 60.02 408.51 58.41 408.83 57.60 M 465.62 85.50 C 450.64 95.53 436.03 107.40 425.19 121.95 C 389.45 160.05 370.95 214.06 367.38 266.14 C 350.47 223.09 343.88 175.78 350.89 129.96 C 354.21 116.08 357.64 102.19 362.94 88.92 C 350.98 92.33 334.83 91.90 329.04 105.07 C 321.80 115.38 314.95 126.59 312.27 139.01 C 297.47 171.12 299.47 209.12 306.95 243.13 C 285.35 219.41 272.21 188.43 265.90 157.18 C 263.60 148.67 263.86 139.82 263.72 131.09 C 246.45 135.41 244.08 152.86 243.89 167.86 C 240.53 196.87 250.59 226.34 266.88 250.16 C 241.91 236.59 222.41 214.15 209.92 188.83 C 208.84 185.95 209.46 181.20 206.24 179.94 C 200.11 187.51 193.78 195.08 188.73 203.44 C 161.18 242.87 147.89 294.91 162.99 341.87 C 166.99 357.40 175.14 371.72 184.25 384.77 C 190.86 382.12 196.58 376.43 203.09 372.97 C 230.28 358.39 260.82 346.33 279.19 320.16 C 269.36 355.58 233.66 373.40 206.98 394.98 C 194.27 405.16 176.92 418.50 179.44 436.90 C 200.07 411.14 231.73 397.39 262.39 387.37 C 240.05 405.44 214.99 421.33 198.75 445.67 C 188.99 458.46 190.66 476.53 201.18 488.41 C 212.71 441.07 255.62 411.35 296.82 390.80 C 270.97 417.93 242.89 444.70 227.78 479.77 C 216.95 501.76 217.75 527.67 225.75 550.43 C 233.77 502.80 269.34 467.30 297.35 430.35 C 324.57 396.65 348.73 354.50 338.28 309.36 C 349.51 341.50 342.88 377.37 329.53 407.89 C 322.54 424.16 313.61 439.43 304.87 454.80 C 332.32 459.61 359.89 465.16 387.93 464.03 C 455.48 465.44 527.86 456.28 584.44 416.36 C 563.82 420.15 543.03 425.19 522.03 425.39 C 528.77 405.82 536.51 386.63 543.00 366.97 C 535.40 371.97 527.64 376.64 519.26 380.21 C 465.47 401.69 408.03 357.82 396.88 305.17 C 380.86 251.51 401.81 184.72 453.88 158.88 C 487.40 142.34 529.38 152.94 553.92 180.32 C 561.89 185.66 570.32 167.59 579.20 165.15 C 580.60 164.53 581.95 163.78 583.30 163.04 C 586.89 161.64 590.45 160.19 594.02 158.74 C 562.43 119.70 515.39 92.55 465.62 85.50 M 367.04 130.53 C 358.26 132.43 352.52 142.35 355.19 151.03 C 357.14 166.46 381.81 169.05 387.42 154.87 C 393.90 142.28 381.31 125.03 367.04 130.53 M 443.48 192.02 L 443.34 192.68 C 398.46 235.68 404.32 319.89 456.46 354.54 C 471.34 363.16 489.98 367.33 506.37 360.87 C 530.72 356.42 546.20 333.15 557.81 312.97 C 562.67 320.00 566.76 327.54 572.00 334.32 C 584.01 350.50 607.89 362.58 627.10 352.19 C 637.50 349.37 645.09 340.80 651.84 332.84 C 678.83 294.74 679.07 239.18 651.77 201.22 C 639.20 184.20 615.48 171.10 594.72 181.72 C 577.12 189.17 566.69 206.23 557.70 222.15 C 548.09 208.48 539.85 192.86 524.87 184.12 C 500.84 165.34 464.37 171.08 443.48 192.02 M 565.99 366.95 C 561.51 377.78 557.76 388.91 554.00 400.01 C 577.67 396.21 601.97 393.76 625.16 388.48 C 605.25 381.84 585.82 373.82 565.99 366.95 M 309.30 477.09 C 296.82 499.42 297.44 526.77 305.75 550.43 C 309.84 524.77 322.91 501.87 337.86 481.05 C 328.15 481.21 318.80 478.58 309.30 477.09 Z" />
<path fill="#00adee" opacity="1.00" d=" M 540.73 87.45 C 543.13 75.03 561.17 69.04 569.74 79.10 C 577.84 86.05 575.68 98.91 568.89 106.13 C 555.79 114.54 536.74 103.71 540.73 87.45 Z" />
<path fill="#fbd6db" opacity="1.00" d=" M 465.62 85.50 C 515.39 92.55 562.43 119.70 594.02 158.74 C 590.45 160.19 586.89 161.64 583.30 163.04 C 567.14 151.83 548.59 145.07 530.46 137.84 C 533.77 123.21 511.85 118.56 508.82 132.15 C 481.77 124.27 453.23 122.28 425.19 121.95 C 436.03 107.40 450.64 95.53 465.62 85.50 Z" />
<path fill="#fbd6db" opacity="1.00" d=" M 329.04 105.07 C 334.83 91.90 350.98 92.33 362.94 88.92 C 357.64 102.19 354.21 116.08 350.89 129.96 C 337.85 132.24 325.19 136.16 312.27 139.01 C 314.95 126.59 321.80 115.38 329.04 105.07 Z" />
<path fill="#efb7c0" opacity="1.00" d=" M 367.38 266.14 C 370.95 214.06 389.45 160.05 425.19 121.95 C 453.23 122.28 481.77 124.27 508.82 132.15 C 507.10 145.43 525.07 149.62 530.46 137.84 C 548.59 145.07 567.14 151.83 583.30 163.04 C 581.95 163.78 580.60 164.53 579.20 165.15 C 569.63 168.14 561.90 174.54 553.92 180.32 C 529.38 152.94 487.40 142.34 453.88 158.88 C 428.81 166.25 410.47 187.57 399.39 210.39 C 377.25 259.76 379.57 321.61 412.01 365.98 C 434.56 401.99 488.59 410.54 519.26 380.21 C 527.64 376.64 535.40 371.97 543.00 366.97 C 536.51 386.63 528.77 405.82 522.03 425.39 C 505.60 428.91 489.34 434.61 472.37 434.73 C 446.61 429.32 425.85 411.49 400.96 403.73 C 376.09 394.21 352.94 427.70 329.53 407.89 C 342.88 377.37 349.51 341.50 338.28 309.36 C 348.73 354.50 324.57 396.65 297.35 430.35 C 269.34 467.30 233.77 502.80 225.75 550.43 C 217.75 527.67 216.95 501.76 227.78 479.77 C 242.89 444.70 270.97 417.93 296.82 390.80 C 255.62 411.35 212.71 441.07 201.18 488.41 C 190.66 476.53 188.99 458.46 198.75 445.67 C 214.99 421.33 240.05 405.44 262.39 387.37 C 231.73 397.39 200.07 411.14 179.44 436.90 C 176.92 418.50 194.27 405.16 206.98 394.98 C 233.66 373.40 269.36 355.58 279.19 320.16 C 260.82 346.33 230.28 358.39 203.09 372.97 C 188.78 363.88 175.29 353.53 162.99 341.87 C 147.89 294.91 161.18 242.87 188.73 203.44 C 196.09 198.99 202.88 193.75 209.92 188.83 C 222.41 214.15 241.91 236.59 266.88 250.16 C 250.59 226.34 240.53 196.87 243.89 167.86 C 251.26 164.37 258.56 160.73 265.90 157.18 C 272.21 188.43 285.35 219.41 306.95 243.13 C 299.47 209.12 297.47 171.12 312.27 139.01 C 325.19 136.16 337.85 132.24 350.89 129.96 C 343.88 175.78 350.47 223.09 367.38 266.14 M 353.20 354.55 C 355.95 374.92 387.95 361.99 394.42 349.35 C 381.28 347.74 363.39 343.80 353.20 354.55 M 366.80 386.45 C 366.77 396.91 381.45 395.18 388.01 394.47 C 401.71 390.48 403.30 374.90 403.94 362.98 C 390.49 368.76 376.78 375.38 366.80 386.45 Z" />
<path fill="#00adee" opacity="1.00" d=" M 508.82 132.15 C 511.85 118.56 533.77 123.21 530.46 137.84 C 525.07 149.62 507.10 145.43 508.82 132.15 Z" />
<path fill="#00adee" opacity="1.00" d=" M 650.75 124.45 C 670.94 118.20 679.45 151.93 658.91 156.64 C 637.70 163.76 629.59 127.54 650.75 124.45 Z" />
<path fill="#00adee" opacity="1.00" d=" M 367.04 130.53 C 381.31 125.03 393.90 142.28 387.42 154.87 C 381.81 169.05 357.14 166.46 355.19 151.03 C 352.52 142.35 358.26 132.43 367.04 130.53 Z" />
<path fill="#fbd6db" opacity="1.00" d=" M 243.89 167.86 C 244.08 152.86 246.45 135.41 263.72 131.09 C 263.86 139.82 263.60 148.67 265.90 157.18 C 258.56 160.73 251.26 164.37 243.89 167.86 Z" />
<path fill="#db5c87" opacity="1.00" d=" M 399.39 210.39 C 410.47 187.57 428.81 166.25 453.88 158.88 C 401.81 184.72 380.86 251.51 396.88 305.17 C 408.03 357.82 465.47 401.69 519.26 380.21 C 488.59 410.54 434.56 401.99 412.01 365.98 C 379.57 321.61 377.25 259.76 399.39 210.39 Z" />
<path fill="#da5d87" opacity="1.00" d=" M 553.92 180.32 C 561.90 174.54 569.63 168.14 579.20 165.15 C 570.32 167.59 561.89 185.66 553.92 180.32 Z" />
<path fill="#ffffff" opacity="1.00" d=" M 443.48 192.02 C 464.37 171.08 500.84 165.34 524.87 184.12 C 539.85 192.86 548.09 208.48 557.70 222.15 C 566.69 206.23 577.12 189.17 594.72 181.72 C 615.48 171.10 639.20 184.20 651.77 201.22 C 679.07 239.18 678.83 294.74 651.84 332.84 C 645.09 340.80 637.50 349.37 627.10 352.19 C 608.63 348.62 593.56 335.51 583.73 319.96 C 579.89 324.81 576.33 329.89 572.00 334.32 C 566.76 327.54 562.67 320.00 557.81 312.97 C 546.20 333.15 530.72 356.42 506.37 360.87 C 471.10 355.75 443.73 326.20 434.07 292.94 C 422.67 259.78 428.78 223.67 443.34 192.68 L 443.48 192.02 M 475.85 221.12 C 486.27 239.70 494.72 259.30 505.08 277.91 C 505.55 279.43 508.27 282.62 505.44 283.47 C 496.16 287.81 487.91 293.97 478.74 298.53 C 501.45 299.49 524.36 296.68 547.13 295.85 C 523.23 271.06 500.24 245.41 475.85 221.12 M 583.83 295.78 C 595.56 297.54 607.27 299.54 619.05 301.01 C 604.49 277.24 627.00 252.75 630.97 228.91 C 615.22 251.14 598.90 273.08 583.83 295.78 Z" />
<path fill="#fbd6db" opacity="1.00" d=" M 206.24 179.94 C 209.46 181.20 208.84 185.95 209.92 188.83 C 202.88 193.75 196.09 198.99 188.73 203.44 C 193.78 195.08 200.11 187.51 206.24 179.94 Z" />
<path fill="#d0d2d3" opacity="1.00" d=" M 456.46 354.54 C 404.32 319.89 398.46 235.68 443.34 192.68 C 428.78 223.67 422.67 259.78 434.07 292.94 C 443.73 326.20 471.10 355.75 506.37 360.87 C 489.98 367.33 471.34 363.16 456.46 354.54 Z" />
<path fill="#000000" opacity="1.00" d=" M 475.85 221.12 C 500.24 245.41 523.23 271.06 547.13 295.85 C 524.36 296.68 501.45 299.49 478.74 298.53 C 487.91 293.97 496.16 287.81 505.44 283.47 C 508.27 282.62 505.55 279.43 505.08 277.91 C 494.72 259.30 486.27 239.70 475.85 221.12 Z" />
<path fill="#000000" opacity="1.00" d=" M 583.83 295.78 C 598.90 273.08 615.22 251.14 630.97 228.91 C 627.00 252.75 604.49 277.24 619.05 301.01 C 607.27 299.54 595.56 297.54 583.83 295.78 Z" />
<path fill="#d0d2d3" opacity="1.00" d=" M 572.00 334.32 C 576.33 329.89 579.89 324.81 583.73 319.96 C 593.56 335.51 608.63 348.62 627.10 352.19 C 607.89 362.58 584.01 350.50 572.00 334.32 Z" />
<path fill="#db5c87" opacity="1.00" d=" M 162.99 341.87 C 175.29 353.53 188.78 363.88 203.09 372.97 C 196.58 376.43 190.86 382.12 184.25 384.77 C 175.14 371.72 166.99 357.40 162.99 341.87 Z" />
<path fill="#000000" opacity="1.00" d=" M 353.20 354.55 C 363.39 343.80 381.28 347.74 394.42 349.35 C 387.95 361.99 355.95 374.92 353.20 354.55 Z" />
<path fill="#000000" opacity="1.00" d=" M 366.80 386.45 C 376.78 375.38 390.49 368.76 403.94 362.98 C 403.30 374.90 401.71 390.48 388.01 394.47 C 381.45 395.18 366.77 396.91 366.80 386.45 Z" />
<path fill="#f05a28" opacity="1.00" d=" M 565.99 366.95 C 585.82 373.82 605.25 381.84 625.16 388.48 C 601.97 393.76 577.67 396.21 554.00 400.01 C 557.76 388.91 561.51 377.78 565.99 366.95 Z" />
<path fill="#db5c87" opacity="1.00" d=" M 329.53 407.89 C 352.94 427.70 376.09 394.21 400.96 403.73 C 425.85 411.49 446.61 429.32 472.37 434.73 C 489.34 434.61 505.60 428.91 522.03 425.39 C 543.03 425.19 563.82 420.15 584.44 416.36 C 527.86 456.28 455.48 465.44 387.93 464.03 C 359.89 465.16 332.32 459.61 304.87 454.80 C 313.61 439.43 322.54 424.16 329.53 407.89 Z" />
<path fill="#efb7c0" opacity="1.00" d=" M 309.30 477.09 C 318.80 478.58 328.15 481.21 337.86 481.05 C 322.91 501.87 309.84 524.77 305.75 550.43 C 297.44 526.77 296.82 499.42 309.30 477.09 Z" />
</svg>
