<?xml version="1.0" encoding="UTF-8" ?>
<!DOCTYPE svg PUBLIC "-//W3C//DTD SVG 1.1//EN" "http://www.w3.org/Graphics/SVG/1.1/DTD/svg11.dtd">
<svg width="717pt" height="610pt" viewBox="0 0 717 610" version="1.1" xmlns="http://www.w3.org/2000/svg">
<path fill="#000000" opacity="1.00" d=" M 421.05 33.08 C 439.45 8.86 475.69 0.34 502.81 14.22 C 533.43 26.69 563.56 40.31 594.16 52.83 C 610.08 60.59 628.80 65.19 639.91 80.10 C 655.41 98.08 661.11 124.86 652.04 147.08 C 645.70 164.05 636.99 180.21 631.85 197.59 C 645.34 204.21 659.41 210.34 671.29 219.67 C 681.78 235.43 668.39 258.06 650.20 259.36 C 658.21 285.56 662.66 312.41 663.36 339.79 C 683.53 339.73 707.46 349.08 712.55 370.80 C 716.15 391.96 696.24 405.41 680.01 413.91 C 693.13 425.18 703.85 448.19 687.69 461.77 C 661.99 481.23 627.41 470.73 598.04 470.90 C 552.18 504.19 495.53 519.12 439.70 523.38 C 424.13 547.19 410.59 574.69 411.84 603.97 C 383.27 593.71 363.49 564.47 362.91 534.38 C 362.23 529.01 355.69 527.19 352.23 523.60 C 344.94 522.67 337.67 521.51 330.34 521.04 C 315.56 546.33 300.19 573.61 301.84 603.97 C 272.15 593.47 253.09 562.77 252.35 531.98 C 238.25 521.78 225.39 506.87 225.69 488.42 C 173.30 461.10 133.91 407.34 133.71 346.89 C 114.00 360.49 95.85 376.56 76.00 389.77 C 63.53 377.83 54.00 361.53 42.76 347.88 C 65.16 334.83 87.90 322.32 110.31 309.26 C 77.25 312.74 44.12 315.58 10.98 318.21 C 9.47 299.50 8.77 280.71 9.10 261.94 C 40.81 265.21 72.57 269.45 104.19 272.63 C 76.01 257.13 48.13 241.09 19.85 225.77 C 26.98 209.69 35.44 194.20 42.26 177.98 C 78.46 206.34 113.39 236.34 149.17 265.25 C 183.02 192.78 250.87 140.78 325.84 116.13 C 312.68 97.83 337.47 80.78 354.47 82.22 C 367.13 85.47 379.66 89.29 391.84 94.11 C 402.81 74.33 407.27 51.32 421.05 33.08 M 433.85 52.89 L 433.13 53.16 C 429.60 61.41 426.01 69.63 422.68 77.96 C 419.13 85.47 415.91 93.16 412.96 100.92 C 479.80 128.08 546.46 156.31 611.84 186.94 C 615.69 179.22 618.16 170.88 622.10 163.18 C 625.32 154.50 630.67 146.20 632.46 137.25 C 640.61 115.77 627.20 90.03 606.46 81.53 C 568.22 65.61 530.23 49.08 492.07 33.00 C 471.52 22.65 444.33 32.95 433.85 52.89 M 343.01 132.98 C 280.82 151.26 222.36 188.68 186.23 243.22 C 158.43 282.77 145.79 335.17 160.90 382.04 C 169.61 415.14 193.28 442.94 221.84 461.17 C 218.25 443.38 222.50 425.34 234.53 411.82 C 266.28 385.88 310.72 376.21 335.94 341.96 C 325.16 378.33 287.81 396.00 260.61 418.60 C 249.95 428.01 236.02 439.98 238.38 455.85 C 258.94 431.63 288.89 416.76 318.99 407.97 C 299.85 423.74 278.48 437.25 262.68 456.69 C 250.45 470.67 245.49 493.00 260.27 507.32 C 269.41 459.92 313.56 430.83 353.85 410.84 C 323.56 440.39 292.22 472.27 279.95 513.98 C 276.38 530.77 275.88 549.89 284.42 565.34 C 296.12 497.70 361.34 457.94 386.43 396.45 C 396.89 376.31 397.41 353.38 393.37 331.47 C 406.86 368.53 395.08 408.94 378.02 442.84 C 367.65 463.26 354.81 482.23 342.92 501.75 C 419.11 508.37 501.36 503.74 569.18 464.74 C 558.64 462.76 548.29 458.21 537.51 458.22 C 521.34 454.03 504.94 450.35 488.40 448.15 C 479.96 455.23 468.22 470.67 457.06 461.72 C 451.36 449.95 467.93 446.70 473.83 439.86 C 496.19 418.92 484.13 382.09 461.77 366.26 C 452.13 362.66 455.92 345.13 467.12 350.52 C 479.26 356.67 487.51 368.51 494.24 380.02 C 543.52 368.31 592.03 353.12 641.84 343.73 C 642.17 333.49 641.63 323.25 640.86 313.04 C 639.40 313.04 636.48 313.02 635.02 313.01 C 635.00 321.66 634.99 330.32 634.99 338.99 C 626.66 339.00 618.32 339.00 610.00 339.01 C 610.01 330.34 610.01 321.67 610.00 313.00 C 600.66 312.98 591.32 312.98 581.99 313.02 C 577.00 313.00 571.98 312.97 567.01 312.97 C 566.98 304.64 566.98 296.33 567.00 288.01 C 589.96 287.98 612.93 287.94 635.90 288.11 C 633.35 275.58 628.93 263.56 624.34 251.66 C 543.72 222.87 465.52 187.82 387.87 151.95 C 380.37 148.46 373.31 142.95 365.22 141.21 C 361.99 138.85 358.59 136.13 354.43 135.87 L 355.19 135.69 C 351.61 133.32 347.51 130.43 343.01 132.98 M 645.34 357.38 C 596.38 366.85 548.70 382.02 500.16 393.11 C 500.91 398.62 501.80 404.12 502.31 409.67 C 544.66 414.84 587.42 415.41 629.96 412.00 C 652.73 408.42 678.18 404.53 694.44 386.43 C 700.73 380.48 700.25 369.86 693.38 364.63 C 680.82 351.72 661.30 352.56 645.34 357.38 M 501.05 424.08 C 499.83 427.54 498.67 431.03 497.98 434.65 C 532.65 443.60 567.95 449.75 603.18 455.90 C 627.14 457.47 653.62 464.79 675.88 452.81 C 689.96 443.14 674.41 425.60 664.00 420.36 C 610.41 432.54 555.31 427.57 501.05 424.08 M 388.01 525.14 C 387.07 539.15 388.54 553.21 393.88 566.26 C 396.96 552.01 400.85 537.83 408.14 525.08 C 401.42 525.02 394.71 525.04 388.01 525.14 Z" />
<path fill="#c3996b" opacity="1.00" d=" M 433.85 52.89 C 444.33 32.95 471.52 22.65 492.07 33.00 C 530.23 49.08 568.22 65.61 606.46 81.53 C 627.20 90.03 640.61 115.77 632.46 137.25 C 629.60 130.33 625.93 123.77 622.21 117.28 C 628.37 108.92 619.56 100.55 612.57 96.37 C 600.79 89.63 586.32 83.99 572.71 88.49 C 543.20 75.38 513.29 63.14 483.62 50.41 C 467.52 43.48 449.38 45.69 433.85 52.89 Z" />
<path fill="#a87c4f" opacity="1.00" d=" M 433.85 52.89 C 449.38 45.69 467.52 43.48 483.62 50.41 C 513.29 63.14 543.20 75.38 572.71 88.49 C 571.43 92.60 570.59 97.49 574.24 100.69 C 586.36 113.35 604.69 120.30 622.21 117.28 C 625.93 123.77 629.60 130.33 632.46 137.25 C 630.67 146.20 625.32 154.50 622.10 163.18 C 555.59 134.88 488.84 107.05 422.68 77.96 C 426.01 69.63 429.60 61.41 433.13 53.16 L 433.85 52.89 Z" />
<path fill="#8a5d3b" opacity="1.00" d=" M 412.96 100.92 C 415.91 93.16 419.13 85.47 422.68 77.96 C 488.84 107.05 555.59 134.88 622.10 163.18 C 618.16 170.88 615.69 179.22 611.84 186.94 C 546.46 156.31 479.80 128.08 412.96 100.92 Z" />
<path fill="#ffffff" opacity="1.00" d=" M 572.71 88.49 C 586.32 83.99 600.79 89.63 612.57 96.37 C 619.56 100.55 628.37 108.92 622.21 117.28 C 604.69 120.30 586.36 113.35 574.24 100.69 C 570.59 97.49 571.43 92.60 572.71 88.49 Z" />
<path fill="#d0ecf4" opacity="1.00" d=" M 343.01 132.98 C 347.51 130.43 351.61 133.32 355.19 135.69 L 354.43 135.87 C 336.04 140.89 316.89 144.97 299.94 153.97 C 321.59 149.24 343.23 144.29 365.22 141.21 C 373.31 142.95 380.37 148.46 387.87 151.95 C 359.77 155.43 332.37 163.09 305.86 172.90 C 305.74 173.44 305.48 174.51 305.35 175.05 C 296.94 160.57 271.73 168.31 276.45 185.73 C 243.84 200.50 214.07 220.85 186.23 243.22 C 222.36 188.68 280.82 151.26 343.01 132.98 Z" />
<path fill="#feffff" opacity="1.00" d=" M 299.94 153.97 C 316.89 144.97 336.04 140.89 354.43 135.87 C 358.59 136.13 361.99 138.85 365.22 141.21 C 343.23 144.29 321.59 149.24 299.94 153.97 Z" />
<path fill="#5bc9e1" opacity="1.00" d=" M 305.86 172.90 C 332.37 163.09 359.77 155.43 387.87 151.95 C 465.52 187.82 543.72 222.87 624.34 251.66 C 628.93 263.56 633.35 275.58 635.90 288.11 C 612.93 287.94 589.96 287.98 567.00 288.01 C 566.98 296.33 566.98 304.64 567.01 312.97 C 571.98 312.97 577.00 313.00 581.99 313.02 C 581.99 321.67 582.00 330.32 582.01 338.99 C 591.33 338.99 600.66 339.00 610.00 339.01 C 618.32 339.00 626.66 339.00 634.99 338.99 C 634.99 330.32 635.00 321.66 635.02 313.01 C 636.48 313.02 639.40 313.04 640.86 313.04 C 641.63 323.25 642.17 333.49 641.84 343.73 C 592.03 353.12 543.52 368.31 494.24 380.02 C 487.51 368.51 479.26 356.67 467.12 350.52 C 455.92 345.13 452.13 362.66 461.77 366.26 C 484.13 382.09 496.19 418.92 473.83 439.86 C 467.93 446.70 451.36 449.95 457.06 461.72 C 468.22 470.67 479.96 455.23 488.40 448.15 C 504.94 450.35 521.34 454.03 537.51 458.22 C 515.75 466.82 492.71 473.28 469.22 473.95 C 437.07 468.98 412.23 437.55 378.02 442.84 C 395.08 408.94 406.86 368.53 393.37 331.47 C 397.41 353.38 396.89 376.31 386.43 396.45 C 361.34 457.94 296.12 497.70 284.42 565.34 C 275.88 549.89 276.38 530.77 279.95 513.98 C 292.22 472.27 323.56 440.39 353.85 410.84 C 313.56 430.83 269.41 459.92 260.27 507.32 C 245.49 493.00 250.45 470.67 262.68 456.69 C 278.48 437.25 299.85 423.74 318.99 407.97 C 288.89 416.76 258.94 431.63 238.38 455.85 C 236.02 439.98 249.95 428.01 260.61 418.60 C 287.81 396.00 325.16 378.33 335.94 341.96 C 310.72 376.21 266.28 385.88 234.53 411.82 C 225.73 412.42 217.16 414.60 208.44 415.71 C 190.16 408.64 175.41 394.81 160.90 382.04 C 145.79 335.17 158.43 282.77 186.23 243.22 C 214.07 220.85 243.84 200.50 276.45 185.73 C 284.50 201.09 312.20 193.95 305.35 175.05 C 305.48 174.51 305.74 173.44 305.86 172.90 M 255.65 201.46 C 238.24 205.99 224.50 219.75 212.54 232.54 C 199.59 248.82 183.09 267.32 186.72 289.72 C 191.08 297.52 201.94 293.29 208.38 290.35 C 236.41 274.60 259.53 247.90 269.28 217.10 C 273.91 207.81 265.20 197.55 255.65 201.46 M 455.00 291.01 C 454.98 299.34 454.98 307.66 455.01 316.00 C 456.76 316.00 460.26 316.00 462.00 316.00 C 461.98 324.66 461.98 333.32 462.00 341.99 C 474.00 342.02 486.00 342.02 498.01 341.99 C 506.33 342.03 514.65 342.01 522.99 341.99 C 522.99 333.00 523.00 324.02 523.01 315.04 C 525.66 315.01 528.33 314.99 531.00 314.96 C 531.01 306.98 531.00 299.00 531.00 291.02 C 505.66 290.97 480.33 290.99 455.00 291.01 Z" />
<path fill="#ffffff" opacity="1.00" d=" M 276.45 185.73 C 271.73 168.31 296.94 160.57 305.35 175.05 C 312.20 193.95 284.50 201.09 276.45 185.73 Z" />
<path fill="#ffffff" opacity="1.00" d=" M 255.65 201.46 C 265.20 197.55 273.91 207.81 269.28 217.10 C 259.53 247.90 236.41 274.60 208.38 290.35 C 201.94 293.29 191.08 297.52 186.72 289.72 C 183.09 267.32 199.59 248.82 212.54 232.54 C 224.50 219.75 238.24 205.99 255.65 201.46 Z" />
<path fill="#000000" opacity="1.00" d=" M 455.00 291.01 C 480.33 290.99 505.66 290.97 531.00 291.02 C 531.00 299.00 531.01 306.98 531.00 314.96 C 528.33 314.99 525.66 315.01 523.01 315.04 C 523.00 324.02 522.99 333.00 522.99 341.99 C 514.65 342.01 506.33 342.03 498.01 341.99 C 498.00 333.33 497.99 324.67 497.99 316.01 C 485.99 315.99 473.99 315.99 462.00 316.00 C 460.26 316.00 456.76 316.00 455.01 316.00 C 454.98 307.66 454.98 299.34 455.00 291.01 Z" />
<path fill="#ffffff" opacity="1.00" d=" M 581.99 313.02 C 591.32 312.98 600.66 312.98 610.00 313.00 C 610.01 321.67 610.01 330.34 610.00 339.01 C 600.66 339.00 591.33 338.99 582.01 338.99 C 582.00 330.32 581.99 321.67 581.99 313.02 Z" />
<path fill="#ffffff" opacity="1.00" d=" M 462.00 316.00 C 473.99 315.99 485.99 315.99 497.99 316.01 C 497.99 324.67 498.00 333.33 498.01 341.99 C 486.00 342.02 474.00 342.02 462.00 341.99 C 461.98 333.32 461.98 324.66 462.00 316.00 Z" />
<path fill="#f6921e" opacity="1.00" d=" M 645.34 357.38 C 661.30 352.56 680.82 351.72 693.38 364.63 C 700.25 369.86 700.73 380.48 694.44 386.43 C 678.18 404.53 652.73 408.42 629.96 412.00 C 587.42 415.41 544.66 414.84 502.31 409.67 C 501.80 404.12 500.91 398.62 500.16 393.11 C 548.70 382.02 596.38 366.85 645.34 357.38 M 671.63 363.35 C 665.63 364.09 667.04 374.13 673.02 373.11 C 683.72 376.09 680.82 358.74 671.63 363.35 M 612.35 374.23 C 608.15 375.09 597.79 381.53 606.55 383.68 C 625.07 383.87 650.83 385.15 663.56 369.42 C 647.05 362.58 628.66 370.25 612.35 374.23 Z" />
<path fill="#ffffff" opacity="1.00" d=" M 671.63 363.35 C 680.82 358.74 683.72 376.09 673.02 373.11 C 667.04 374.13 665.63 364.09 671.63 363.35 Z" />
<path fill="#ffffff" opacity="1.00" d=" M 612.35 374.23 C 628.66 370.25 647.05 362.58 663.56 369.42 C 650.83 385.15 625.07 383.87 606.55 383.68 C 597.79 381.53 608.15 375.09 612.35 374.23 Z" />
<path fill="#00aeef" opacity="1.00" d=" M 160.90 382.04 C 175.41 394.81 190.16 408.64 208.44 415.71 C 217.16 414.60 225.73 412.42 234.53 411.82 C 222.50 425.34 218.25 443.38 221.84 461.17 C 193.28 442.94 169.61 415.14 160.90 382.04 Z" />
<path fill="#f05a28" opacity="1.00" d=" M 501.05 424.08 C 555.31 427.57 610.41 432.54 664.00 420.36 C 674.41 425.60 689.96 443.14 675.88 452.81 C 653.62 464.79 627.14 457.47 603.18 455.90 C 567.95 449.75 532.65 443.60 497.98 434.65 C 498.67 431.03 499.83 427.54 501.05 424.08 M 622.44 445.32 C 631.06 456.79 651.52 451.69 663.78 447.73 C 654.38 436.51 635.03 441.44 622.44 445.32 Z" />
<path fill="#00aeef" opacity="1.00" d=" M 378.02 442.84 C 412.23 437.55 437.07 468.98 469.22 473.95 C 492.71 473.28 515.75 466.82 537.51 458.22 C 548.29 458.21 558.64 462.76 569.18 464.74 C 501.36 503.74 419.11 508.37 342.92 501.75 C 354.81 482.23 367.65 463.26 378.02 442.84 Z" />
<path fill="#ffffff" opacity="1.00" d=" M 622.44 445.32 C 635.03 441.44 654.38 436.51 663.78 447.73 C 651.52 451.69 631.06 456.79 622.44 445.32 Z" />
<path fill="#5bc9e1" opacity="1.00" d=" M 388.01 525.14 C 394.71 525.04 401.42 525.02 408.14 525.08 C 400.85 537.83 396.96 552.01 393.88 566.26 C 388.54 553.21 387.07 539.15 388.01 525.14 Z" />
</svg>
