<?xml version="1.0" encoding="UTF-8" ?>
<!DOCTYPE svg PUBLIC "-//W3C//DTD SVG 1.1//EN" "http://www.w3.org/Graphics/SVG/1.1/DTD/svg11.dtd">
<svg width="716pt" height="632pt" viewBox="0 0 716 632" version="1.1" xmlns="http://www.w3.org/2000/svg">
<path fill="#000000" opacity="1.00" d=" M 515.52 19.40 C 527.74 17.87 538.07 26.97 547.35 33.64 C 584.49 67.77 607.53 120.03 598.17 170.82 C 606.45 179.32 613.98 188.54 620.87 198.20 C 639.32 201.80 656.81 211.68 668.13 226.87 C 705.68 275.26 704.76 351.33 662.67 396.63 C 655.51 401.08 652.40 408.95 650.06 416.61 C 670.36 423.47 690.16 431.75 710.52 438.49 C 683.91 443.46 656.97 446.79 630.25 451.20 C 621.75 451.75 617.56 459.71 611.61 464.62 C 568.17 501.32 511.66 517.78 456.13 524.14 C 403.33 530.24 349.26 528.12 297.60 515.26 C 294.52 514.69 291.14 513.65 288.17 515.08 C 265.38 524.39 243.25 535.21 220.29 544.10 C 216.89 535.59 212.37 527.58 208.93 519.10 C 221.94 511.52 237.06 507.74 250.21 500.15 C 239.65 494.07 228.20 489.62 217.87 483.18 C 194.92 492.71 171.87 502.64 149.16 512.94 C 144.96 504.31 140.74 495.56 138.13 486.30 C 156.06 479.28 173.66 471.33 191.17 463.29 C 164.53 439.79 146.05 406.96 140.53 371.81 C 127.48 376.86 115.88 385.27 103.13 391.16 C 113.45 377.02 123.48 362.65 132.95 347.93 C 100.45 361.60 68.21 376.27 35.39 388.92 C 27.73 364.12 17.73 340.05 9.81 315.33 C 48.03 310.93 86.31 305.11 124.32 300.11 C 88.29 290.52 52.08 281.31 16.09 271.44 C 17.73 262.06 24.74 254.62 27.58 245.55 C 34.11 244.16 40.61 242.58 47.01 240.64 C 44.86 233.61 34.78 227.57 39.85 219.94 C 44.87 210.01 49.85 200.07 54.23 189.83 C 88.42 213.72 120.88 240.00 154.89 264.13 C 158.31 255.84 164.01 248.36 166.74 239.96 C 162.84 224.18 170.03 208.05 182.04 197.95 C 169.16 170.01 173.46 130.27 199.61 111.89 C 203.35 122.80 208.74 133.14 215.95 142.17 C 220.72 132.01 226.07 120.97 235.80 114.72 C 240.78 127.14 247.11 139.07 255.54 149.50 C 256.81 151.50 259.01 150.65 260.67 149.70 C 325.68 110.41 405.34 91.43 480.37 107.73 C 457.70 90.40 430.95 78.57 409.98 58.99 C 405.48 54.56 405.78 45.30 412.83 43.68 C 434.19 35.76 456.64 45.81 475.99 55.02 C 516.80 74.28 552.79 106.49 570.66 148.53 C 568.37 108.77 543.42 73.45 523.20 39.81 C 519.57 33.51 514.68 27.10 515.52 19.40 M 448.38 124.20 C 447.57 138.91 441.66 152.72 432.33 164.02 C 423.68 169.11 412.77 169.74 404.31 163.68 L 405.18 163.61 C 394.57 153.99 390.19 139.75 387.93 126.02 C 380.72 127.38 373.46 128.40 366.16 129.05 C 367.58 142.90 368.41 157.67 360.99 170.00 L 360.17 170.18 C 354.60 179.69 341.77 179.47 333.02 175.34 C 322.53 169.11 315.78 159.21 309.59 149.18 C 289.13 155.50 270.83 168.69 252.84 180.30 C 257.36 187.19 264.28 192.68 270.96 197.09 C 314.41 235.97 367.70 281.37 365.29 345.26 C 360.55 307.40 334.86 276.35 307.74 251.26 C 270.47 214.71 219.49 190.30 194.48 142.69 C 187.32 164.42 194.96 187.75 206.49 206.52 C 223.77 234.48 248.32 257.03 274.38 276.66 C 239.41 267.89 208.55 245.08 187.91 215.73 C 180.34 222.78 178.76 234.92 184.49 243.58 C 210.57 281.05 256.79 296.22 297.03 314.00 C 262.53 313.30 228.11 302.74 199.14 283.97 C 197.27 302.19 204.83 321.27 219.39 332.60 C 244.53 350.98 277.24 354.37 307.41 355.64 C 269.28 358.73 218.86 361.81 193.58 326.42 C 182.70 309.41 180.60 288.67 182.70 268.94 C 183.65 266.02 179.78 260.19 178.11 265.09 C 158.64 300.91 152.66 344.77 165.05 383.90 C 174.96 423.75 207.09 453.81 242.11 472.92 C 300.82 501.67 367.80 508.92 432.40 505.40 C 485.56 500.33 541.27 490.62 585.08 457.98 C 564.95 462.27 544.48 466.01 523.88 466.80 C 525.40 458.19 530.37 450.69 532.06 442.10 C 536.83 430.39 541.16 418.51 545.79 406.74 C 517.61 431.72 473.59 433.66 442.91 412.08 C 397.26 380.44 383.30 316.37 400.43 265.44 C 414.91 219.77 455.24 189.40 497.06 170.04 C 510.40 165.35 524.18 161.01 537.39 156.13 C 533.31 151.31 529.39 145.93 523.10 143.88 C 499.57 133.29 474.18 125.61 448.38 124.20 M 231.25 144.81 C 228.12 152.78 227.96 161.55 236.38 166.27 C 237.98 165.24 239.57 164.19 241.16 163.14 C 236.96 157.50 234.59 150.91 231.25 144.81 M 444.52 234.03 L 444.33 234.71 C 413.73 264.92 407.15 314.57 423.46 353.53 C 435.78 386.49 472.52 415.74 508.29 402.07 C 532.72 397.50 547.09 374.01 559.82 354.83 C 564.31 361.63 568.42 368.68 573.10 375.37 C 585.40 392.43 610.39 404.56 630.02 393.09 C 656.30 381.94 667.79 351.67 672.59 325.38 C 677.09 286.36 664.38 236.49 623.92 220.92 C 593.60 213.07 571.69 239.74 558.94 263.13 C 545.93 241.10 527.54 219.43 501.03 214.81 C 480.13 210.71 459.63 220.16 444.52 234.03 M 567.26 408.99 C 563.34 419.55 558.94 429.99 555.88 440.84 C 579.80 438.39 603.76 434.57 627.35 430.13 C 607.10 423.72 587.72 414.72 567.26 408.99 Z" />
<path fill="#f9e79d" opacity="1.00" d=" M 448.38 124.20 C 474.18 125.61 499.57 133.29 523.10 143.88 C 529.39 145.93 533.31 151.31 537.39 156.13 C 524.18 161.01 510.40 165.35 497.06 170.04 C 475.59 166.98 454.17 162.37 432.33 164.02 C 441.66 152.72 447.57 138.91 448.38 124.20 Z" />
<path fill="#f9e79d" opacity="1.00" d=" M 366.16 129.05 C 373.46 128.40 380.72 127.38 387.93 126.02 C 390.19 139.75 394.57 153.99 405.18 163.61 L 404.31 163.68 C 389.77 164.94 375.22 166.70 360.99 170.00 C 368.41 157.67 367.58 142.90 366.16 129.05 Z" />
<path fill="#ffcc00" opacity="1.00" d=" M 194.48 142.69 C 219.49 190.30 270.47 214.71 307.74 251.26 C 334.86 276.35 360.55 307.40 365.29 345.26 C 367.70 281.37 314.41 235.97 270.96 197.09 C 291.15 188.49 311.89 181.28 333.02 175.34 C 341.77 179.47 354.60 179.69 360.17 170.18 L 360.99 170.00 C 375.22 166.70 389.77 164.94 404.31 163.68 C 412.77 169.74 423.68 169.11 432.33 164.02 C 454.17 162.37 475.59 166.98 497.06 170.04 C 455.24 189.40 414.91 219.77 400.43 265.44 C 383.30 316.37 397.26 380.44 442.91 412.08 C 473.59 433.66 517.61 431.72 545.79 406.74 C 541.16 418.51 536.83 430.39 532.06 442.10 C 510.77 447.87 489.02 451.73 467.13 454.28 C 440.76 457.56 416.41 443.17 390.24 443.24 C 375.58 444.11 364.05 456.05 349.13 455.70 C 330.88 454.27 316.79 440.44 299.26 436.44 C 289.46 434.42 281.74 444.34 271.79 441.53 C 255.28 436.10 249.21 409.59 229.05 414.15 C 203.05 423.87 183.44 398.53 165.05 383.90 C 152.66 344.77 158.64 300.91 178.11 265.09 C 179.78 260.19 183.65 266.02 182.70 268.94 C 180.60 288.67 182.70 309.41 193.58 326.42 C 218.86 361.81 269.28 358.73 307.41 355.64 C 277.24 354.37 244.53 350.98 219.39 332.60 C 204.83 321.27 197.27 302.19 199.14 283.97 C 228.11 302.74 262.53 313.30 297.03 314.00 C 256.79 296.22 210.57 281.05 184.49 243.58 C 178.76 234.92 180.34 222.78 187.91 215.73 C 208.55 245.08 239.41 267.89 274.38 276.66 C 248.32 257.03 223.77 234.48 206.49 206.52 C 194.96 187.75 187.32 164.42 194.48 142.69 Z" />
<path fill="#ffcc00" opacity="1.00" d=" M 231.25 144.81 C 234.59 150.91 236.96 157.50 241.16 163.14 C 239.57 164.19 237.98 165.24 236.38 166.27 C 227.96 161.55 228.12 152.78 231.25 144.81 Z" />
<path fill="#f9e79d" opacity="1.00" d=" M 252.84 180.30 C 270.83 168.69 289.13 155.50 309.59 149.18 C 315.78 159.21 322.53 169.11 333.02 175.34 C 311.89 181.28 291.15 188.49 270.96 197.09 C 264.28 192.68 257.36 187.19 252.84 180.30 Z" />
<path fill="#ffffff" opacity="1.00" d=" M 444.52 234.03 C 459.63 220.16 480.13 210.71 501.03 214.81 C 527.54 219.43 545.93 241.10 558.94 263.13 C 571.69 239.74 593.60 213.07 623.92 220.92 C 664.38 236.49 677.09 286.36 672.59 325.38 C 667.79 351.67 656.30 381.94 630.02 393.09 C 610.65 391.69 595.82 376.70 585.06 361.78 C 581.42 366.59 578.18 371.91 573.10 375.37 C 568.42 368.68 564.31 361.63 559.82 354.83 C 547.09 374.01 532.72 397.50 508.29 402.07 C 472.76 397.84 445.32 367.57 435.57 334.41 C 424.65 301.45 430.00 265.66 444.33 234.71 L 444.52 234.03 M 523.54 282.17 C 505.94 296.44 507.76 325.08 520.14 342.15 C 537.83 353.37 548.15 327.17 546.06 313.31 C 541.28 312.68 536.51 312.09 531.73 311.61 C 535.10 306.59 539.52 302.36 542.89 297.36 C 542.94 288.13 533.36 276.87 523.54 282.17 M 634.55 335.55 C 647.25 351.07 656.87 323.65 655.21 312.33 C 651.49 311.36 647.63 310.80 643.80 310.62 C 652.90 303.09 655.56 291.20 644.49 283.68 C 623.74 288.49 625.99 320.69 634.55 335.55 Z" />
<path fill="#d0d2d3" opacity="1.00" d=" M 423.46 353.53 C 407.15 314.57 413.73 264.92 444.33 234.71 C 430.00 265.66 424.65 301.45 435.57 334.41 C 445.32 367.57 472.76 397.84 508.29 402.07 C 472.52 415.74 435.78 386.49 423.46 353.53 Z" />
<path fill="#000000" opacity="1.00" d=" M 523.54 282.17 C 533.36 276.87 542.94 288.13 542.89 297.36 C 539.52 302.36 535.10 306.59 531.73 311.61 C 536.51 312.09 541.28 312.68 546.06 313.31 C 548.15 327.17 537.83 353.37 520.14 342.15 C 507.76 325.08 505.94 296.44 523.54 282.17 Z" />
<path fill="#000000" opacity="1.00" d=" M 634.55 335.55 C 625.99 320.69 623.74 288.49 644.49 283.68 C 655.56 291.20 652.90 303.09 643.80 310.62 C 647.63 310.80 651.49 311.36 655.21 312.33 C 656.87 323.65 647.25 351.07 634.55 335.55 Z" />
<path fill="#d0d2d3" opacity="1.00" d=" M 573.10 375.37 C 578.18 371.91 581.42 366.59 585.06 361.78 C 595.82 376.70 610.65 391.69 630.02 393.09 C 610.39 404.56 585.40 392.43 573.10 375.37 Z" />
<path fill="#ff9900" opacity="1.00" d=" M 165.05 383.90 C 183.44 398.53 203.05 423.87 229.05 414.15 C 249.21 409.59 255.28 436.10 271.79 441.53 C 281.74 444.34 289.46 434.42 299.26 436.44 C 316.79 440.44 330.88 454.27 349.13 455.70 C 364.05 456.05 375.58 444.11 390.24 443.24 C 416.41 443.17 440.76 457.56 467.13 454.28 C 489.02 451.73 510.77 447.87 532.06 442.10 C 530.37 450.69 525.40 458.19 523.88 466.80 C 544.48 466.01 564.95 462.27 585.08 457.98 C 541.27 490.62 485.56 500.33 432.40 505.40 C 367.80 508.92 300.82 501.67 242.11 472.92 C 207.09 453.81 174.96 423.75 165.05 383.90 Z" />
<path fill="#f05a28" opacity="1.00" d=" M 567.26 408.99 C 587.72 414.72 607.10 423.72 627.35 430.13 C 603.76 434.57 579.80 438.39 555.88 440.84 C 558.94 429.99 563.34 419.55 567.26 408.99 Z" />
</svg>
