<?xml version="1.0" encoding="UTF-8" ?>
<!DOCTYPE svg PUBLIC "-//W3C//DTD SVG 1.1//EN" "http://www.w3.org/Graphics/SVG/1.1/DTD/svg11.dtd">
<svg width="1100pt" height="868pt" viewBox="0 0 1100 868" version="1.1" xmlns="http://www.w3.org/2000/svg">
<path fill="#990000" opacity="1.00" d=" M 645.96 57.11 C 648.60 20.10 697.33 -1.27 728.27 15.90 C 713.86 22.09 700.70 33.67 697.47 49.61 C 692.30 76.96 705.72 103.21 718.66 126.33 C 754.02 184.94 804.06 232.90 855.48 277.32 C 849.88 285.38 844.73 293.83 838.09 301.11 C 834.69 298.75 831.27 296.44 827.82 294.17 C 785.26 262.70 746.20 226.45 711.74 186.27 C 688.00 157.96 665.05 127.82 652.12 92.86 C 647.57 81.52 645.83 69.29 645.96 57.11 Z" />
<path fill="#ec1c24" opacity="1.00" d=" M 697.47 49.61 C 700.70 33.67 713.86 22.09 728.27 15.90 C 754.53 27.30 770.84 53.75 783.86 78.13 C 791.67 92.93 797.82 108.52 803.94 124.07 C 811.42 145.41 817.23 167.28 822.75 189.16 C 824.83 171.22 829.07 153.53 834.19 136.23 C 837.41 124.30 841.03 112.48 845.88 101.11 C 875.14 74.66 908.71 53.72 942.05 32.89 C 949.73 39.09 956.13 48.09 955.92 58.36 C 958.80 90.85 945.08 121.31 931.66 149.99 C 925.57 161.55 920.74 173.74 914.05 185.00 C 896.06 216.69 876.67 247.67 855.48 277.32 C 804.06 232.90 754.02 184.94 718.66 126.33 C 705.72 103.21 692.30 76.96 697.47 49.61 Z" />
<path fill="#990000" opacity="1.00" d=" M 889.86 33.88 C 904.95 22.65 926.57 21.87 942.05 32.89 C 908.71 53.72 875.14 74.66 845.88 101.11 C 855.02 75.82 867.87 50.35 889.86 33.88 Z" />
<path fill="#000000" opacity="1.00" d=" M 348.94 142.93 C 435.21 83.15 541.45 54.37 645.96 57.11 C 645.83 69.29 647.57 81.52 652.12 92.86 C 531.86 88.58 407.53 128.73 319.97 212.97 C 246.19 281.92 203.55 385.75 218.18 486.88 C 222.97 521.83 233.74 555.75 249.59 587.22 C 281.77 649.03 332.47 700.30 392.09 735.97 C 378.98 718.03 391.70 695.54 382.37 676.68 C 379.45 668.10 379.79 658.93 379.91 650.00 C 380.81 632.41 393.05 617.79 406.00 607.00 C 444.50 577.24 496.81 565.21 526.20 524.16 C 514.92 564.66 475.59 586.47 444.62 610.62 C 425.12 625.37 399.69 642.68 401.71 670.15 C 426.98 638.35 466.21 620.11 504.25 608.26 C 476.07 631.98 442.24 651.69 423.65 684.60 C 414.03 700.17 417.32 720.84 429.36 734.21 C 442.76 674.47 497.68 637.90 548.86 611.85 C 509.34 652.36 463.40 694.95 453.47 753.45 C 449.26 772.93 452.98 792.88 460.10 811.15 C 475.77 719.84 566.44 667.89 595.44 582.43 C 603.82 559.54 604.90 534.60 600.05 510.80 C 608.67 532.21 607.42 556.04 605.72 578.62 C 597.15 631.25 567.53 676.68 539.60 720.88 C 526.67 741.05 513.59 761.31 502.79 782.70 C 639.91 822.47 795.84 797.81 910.76 711.76 C 954.59 678.55 992.50 636.38 1017.26 587.05 C 1060.21 505.04 1062.63 403.43 1023.49 319.51 C 999.26 266.33 960.68 220.02 914.05 185.00 C 920.74 173.74 925.57 161.55 931.66 149.99 C 934.93 156.58 941.99 160.03 947.29 164.74 C 1027.28 229.84 1083.43 327.77 1087.02 431.95 C 1093.80 551.26 1030.51 667.65 935.86 737.87 C 810.62 834.08 638.76 860.36 488.25 816.79 C 484.51 830.25 481.91 843.95 482.79 858.02 C 453.17 848.87 432.76 821.32 423.06 792.96 C 404.80 783.76 386.14 775.25 368.99 763.94 C 362.10 758.08 354.22 764.42 347.89 767.92 C 314.12 784.79 280.56 802.12 246.86 819.09 C 241.13 807.00 234.18 795.50 228.75 783.28 C 260.61 766.68 293.79 750.81 324.83 734.01 C 312.13 722.19 297.73 709.79 284.95 698.08 C 246.98 716.32 209.57 736.18 171.82 755.14 C 166.42 742.87 159.28 731.46 153.70 719.31 C 187.97 701.24 223.50 684.87 257.05 665.87 C 219.94 617.98 193.58 561.10 183.86 501.05 C 147.06 531.95 106.67 570.16 55.26 568.06 C 31.69 564.29 2.86 544.36 9.81 517.03 C 23.91 490.82 54.10 480.37 80.39 470.40 C 107.86 460.17 136.48 453.22 165.05 446.86 C 122.60 436.73 77.75 422.68 47.35 389.63 C 27.44 368.35 37.55 331.44 63.41 320.29 C 79.16 315.67 94.65 323.58 108.13 330.87 C 136.32 348.66 160.44 372.25 182.29 397.23 C 199.51 294.17 262.41 200.91 348.94 142.93 M 67.77 337.40 C 60.73 337.71 54.62 345.71 59.84 351.97 C 70.05 362.99 87.01 368.29 101.78 365.04 C 107.73 363.66 111.37 356.09 107.16 351.01 C 97.80 339.93 81.76 335.89 67.77 337.40 M 27.62 523.47 C 40.85 536.59 62.68 525.80 73.88 514.72 C 82.85 508.76 76.06 496.17 66.65 497.96 C 51.13 498.22 30.13 506.06 27.62 523.47 Z" />
<path fill="#000000" opacity="1.00" d=" M 783.86 78.13 C 805.00 84.47 824.95 94.40 845.88 101.11 C 841.03 112.48 837.41 124.30 834.19 136.23 C 824.06 132.30 814.45 126.97 803.94 124.07 C 797.82 108.52 791.67 92.93 783.86 78.13 Z" />
<path fill="#ffffff" opacity="1.00" d=" M 319.97 212.97 C 407.53 128.73 531.86 88.58 652.12 92.86 C 665.05 127.82 688.00 157.96 711.74 186.27 C 682.55 164.20 651.12 142.15 614.32 135.68 C 595.81 132.32 573.07 132.68 558.85 146.73 C 553.99 163.85 576.32 171.65 587.08 179.92 C 665.04 222.71 750.30 250.42 827.82 294.17 C 831.27 296.44 834.69 298.75 838.09 301.11 C 844.73 293.83 849.88 285.38 855.48 277.32 C 876.67 247.67 896.06 216.69 914.05 185.00 C 960.68 220.02 999.26 266.33 1023.49 319.51 C 1062.63 403.43 1060.21 505.04 1017.26 587.05 C 959.48 640.17 890.39 680.99 815.21 704.13 C 785.87 716.66 755.17 700.06 725.07 703.75 C 711.64 706.47 711.64 725.58 698.07 727.89 C 662.06 729.46 628.44 711.00 592.41 713.13 C 583.34 713.56 577.44 721.40 569.67 725.00 C 559.52 727.50 548.48 726.76 539.60 720.88 C 567.53 676.68 597.15 631.25 605.72 578.62 C 607.42 556.04 608.67 532.21 600.05 510.80 C 604.90 534.60 603.82 559.54 595.44 582.43 C 566.44 667.89 475.77 719.84 460.10 811.15 C 452.98 792.88 449.26 772.93 453.47 753.45 C 463.40 694.95 509.34 652.36 548.86 611.85 C 497.68 637.90 442.76 674.47 429.36 734.21 C 417.32 720.84 414.03 700.17 423.65 684.60 C 442.24 651.69 476.07 631.98 504.25 608.26 C 466.21 620.11 426.98 638.35 401.71 670.15 C 399.69 642.68 425.12 625.37 444.62 610.62 C 475.59 586.47 514.92 564.66 526.20 524.16 C 496.81 565.21 444.50 577.24 406.00 607.00 C 393.05 617.79 380.81 632.41 379.91 650.00 C 379.42 652.40 378.93 654.90 378.45 657.34 C 372.21 650.37 365.41 643.48 356.57 639.87 C 344.72 635.81 333.25 646.44 321.47 642.64 C 295.87 627.11 272.88 607.47 251.56 586.51 C 251.07 586.69 250.08 587.04 249.59 587.22 C 233.74 555.75 222.97 521.83 218.18 486.88 C 203.55 385.75 246.19 281.92 319.97 212.97 M 800.29 377.14 C 775.65 387.19 765.57 416.79 763.34 441.28 C 758.99 458.06 760.04 476.17 765.02 492.73 C 766.12 513.76 776.71 538.04 796.13 548.96 C 812.20 557.75 829.98 544.80 837.79 530.79 C 858.02 495.04 858.68 450.08 845.06 411.92 C 838.60 393.65 822.60 371.40 800.29 377.14 M 931.67 382.39 C 914.60 389.06 903.28 408.92 901.84 425.98 C 894.47 442.46 894.47 461.42 898.25 478.79 C 900.09 501.22 909.54 529.06 932.71 537.46 C 949.44 542.00 963.73 528.42 970.69 514.68 C 986.10 483.00 986.75 444.75 973.84 412.14 C 967.53 395.26 951.82 376.47 931.67 382.39 M 880.13 540.09 C 865.21 573.79 849.43 607.16 835.08 641.08 C 884.19 624.52 933.27 607.70 982.28 590.80 C 948.73 573.15 914.31 556.63 880.13 540.09 M 704.75 552.38 C 687.58 554.88 665.28 568.45 672.21 588.60 C 685.70 614.55 723.90 616.91 747.03 603.05 C 759.30 597.04 766.08 580.47 757.27 568.70 C 745.23 553.02 723.12 549.81 704.75 552.38 Z" />
<path fill="#ffffff" opacity="1.00" d=" M 803.94 124.07 C 814.45 126.97 824.06 132.30 834.19 136.23 C 829.07 153.53 824.83 171.22 822.75 189.16 C 817.23 167.28 811.42 145.41 803.94 124.07 Z" />
<path fill="#bbbdbf" opacity="1.00" d=" M 558.85 146.73 C 573.07 132.68 595.81 132.32 614.32 135.68 C 651.12 142.15 682.55 164.20 711.74 186.27 C 746.20 226.45 785.26 262.70 827.82 294.17 C 750.30 250.42 665.04 222.71 587.08 179.92 C 576.32 171.65 553.99 163.85 558.85 146.73 Z" />
<path fill="#ffffff" opacity="1.00" d=" M 67.77 337.40 C 81.76 335.89 97.80 339.93 107.16 351.01 C 111.37 356.09 107.73 363.66 101.78 365.04 C 87.01 368.29 70.05 362.99 59.84 351.97 C 54.62 345.71 60.73 337.71 67.77 337.40 Z" />
<path fill="#d0d2d3" opacity="1.00" d=" M 800.29 377.14 C 822.60 371.40 838.60 393.65 845.06 411.92 C 858.68 450.08 858.02 495.04 837.79 530.79 C 829.98 544.80 812.20 557.75 796.13 548.96 C 776.71 538.04 766.12 513.76 765.02 492.73 C 769.22 508.10 778.19 525.31 794.83 529.57 C 813.45 533.06 826.44 515.47 832.30 500.30 C 842.16 472.01 841.16 437.89 822.96 413.12 C 815.77 402.59 800.64 395.46 788.74 402.62 C 773.80 409.72 768.26 426.67 763.34 441.28 C 765.57 416.79 775.65 387.19 800.29 377.14 Z" />
<path fill="#d0d2d3" opacity="1.00" d=" M 931.67 382.39 C 951.82 376.47 967.53 395.26 973.84 412.14 C 986.75 444.75 986.10 483.00 970.69 514.68 C 963.73 528.42 949.44 542.00 932.71 537.46 C 909.54 529.06 900.09 501.22 898.25 478.79 C 903.34 496.69 915.97 520.58 938.69 513.10 C 972.85 490.93 973.07 433.54 945.32 405.76 C 928.40 390.59 906.41 407.84 901.84 425.98 C 903.28 408.92 914.60 389.06 931.67 382.39 Z" />
<path fill="#000000" opacity="1.00" d=" M 788.74 402.62 C 800.64 395.46 815.77 402.59 822.96 413.12 C 841.16 437.89 842.16 472.01 832.30 500.30 C 826.44 515.47 813.45 533.06 794.83 529.57 C 778.19 525.31 769.22 508.10 765.02 492.73 C 760.04 476.17 758.99 458.06 763.34 441.28 C 768.26 426.67 773.80 409.72 788.74 402.62 M 805.61 427.33 C 791.19 436.84 790.23 463.70 805.66 472.67 C 828.60 474.77 829.39 426.07 805.61 427.33 Z" />
<path fill="#000000" opacity="1.00" d=" M 901.84 425.98 C 906.41 407.84 928.40 390.59 945.32 405.76 C 973.07 433.54 972.85 490.93 938.69 513.10 C 915.97 520.58 903.34 496.69 898.25 478.79 C 894.47 461.42 894.47 442.46 901.84 425.98 M 939.01 426.28 C 928.45 434.87 929.28 453.41 939.63 461.80 C 958.85 464.25 959.16 422.14 939.01 426.28 Z" />
<path fill="#ffffff" opacity="1.00" d=" M 939.01 426.28 C 959.16 422.14 958.85 464.25 939.63 461.80 C 929.28 453.41 928.45 434.87 939.01 426.28 Z" />
<path fill="#ffffff" opacity="1.00" d=" M 805.61 427.33 C 829.39 426.07 828.60 474.77 805.66 472.67 C 790.23 463.70 791.19 436.84 805.61 427.33 Z" />
<path fill="#ffffff" opacity="1.00" d=" M 27.62 523.47 C 30.13 506.06 51.13 498.22 66.65 497.96 C 76.06 496.17 82.85 508.76 73.88 514.72 C 62.68 525.80 40.85 536.59 27.62 523.47 Z" />
<path fill="#faaf40" opacity="1.00" d=" M 880.13 540.09 C 914.31 556.63 948.73 573.15 982.28 590.80 C 933.27 607.70 884.19 624.52 835.08 641.08 C 849.43 607.16 865.21 573.79 880.13 540.09 Z" />
<path fill="#efb7c0" opacity="1.00" d=" M 704.75 552.38 C 723.12 549.81 745.23 553.02 757.27 568.70 C 766.08 580.47 759.30 597.04 747.03 603.05 C 723.90 616.91 685.70 614.55 672.21 588.60 C 665.28 568.45 687.58 554.88 704.75 552.38 Z" />
<path fill="#bbbdbf" opacity="1.00" d=" M 249.59 587.22 C 250.08 587.04 251.07 586.69 251.56 586.51 C 272.88 607.47 295.87 627.11 321.47 642.64 C 333.25 646.44 344.72 635.81 356.57 639.87 C 365.41 643.48 372.21 650.37 378.45 657.34 C 378.93 654.90 379.42 652.40 379.91 650.00 C 379.79 658.93 379.45 668.10 382.37 676.68 C 391.70 695.54 378.98 718.03 392.09 735.97 C 332.47 700.30 281.77 649.03 249.59 587.22 Z" />
<path fill="#bbbdbf" opacity="1.00" d=" M 815.21 704.13 C 890.39 680.99 959.48 640.17 1017.26 587.05 C 992.50 636.38 954.59 678.55 910.76 711.76 C 795.84 797.81 639.91 822.47 502.79 782.70 C 513.59 761.31 526.67 741.05 539.60 720.88 C 548.48 726.76 559.52 727.50 569.67 725.00 C 577.44 721.40 583.34 713.56 592.41 713.13 C 628.44 711.00 662.06 729.46 698.07 727.89 C 711.64 725.58 711.64 706.47 725.07 703.75 C 755.17 700.06 785.87 716.66 815.21 704.13 Z" />
</svg>
